<?xml version="1.0" encoding="UTF-8"?>
<!DOCTYPE svg PUBLIC "-//W3C//DTD SVG 1.1//EN" "http://www.w3.org/Graphics/SVG/1.1/DTD/svg11.dtd">
<svg version="1.2" width="25.7mm" height="6.1mm" viewBox="0 0 2570 610" preserveAspectRatio="xMidYMid" fill-rule="evenodd" stroke-width="28.222" stroke-linejoin="round" xmlns="http://www.w3.org/2000/svg" xmlns:ooo="http://xml.openoffice.org/svg/export" xmlns:xlink="http://www.w3.org/1999/xlink" xmlns:presentation="http://sun.com/xmlns/staroffice/presentation" xmlns:smil="http://www.w3.org/2001/SMIL20/" xmlns:anim="urn:oasis:names:tc:opendocument:xmlns:animation:1.0" xml:space="preserve">
 <defs class="ClipPathGroup">
  <clipPath id="presentation_clip_path" clipPathUnits="userSpaceOnUse">
   <rect x="0" y="0" width="2570" height="610"/>
  </clipPath>
  <clipPath id="presentation_clip_path_shrink" clipPathUnits="userSpaceOnUse">
   <rect x="2" y="0" width="2565" height="609"/>
  </clipPath>
 </defs>
 <defs class="TextShapeIndex">
  <g ooo:slide="id1" ooo:id-list="id3 id4 id5 id6 id7 id8 id9 id10"/>
 </defs>
 <defs class="EmbeddedBulletChars">
  <g id="bullet-char-template-57356" transform="scale(0.00048828125,-0.00048828125)">
   <path d="M 580,1141 L 1163,571 580,0 -4,571 580,1141 Z"/>
  </g>
  <g id="bullet-char-template-57354" transform="scale(0.00048828125,-0.00048828125)">
   <path d="M 8,1128 L 1137,1128 1137,0 8,0 8,1128 Z"/>
  </g>
  <g id="bullet-char-template-10146" transform="scale(0.00048828125,-0.00048828125)">
   <path d="M 174,0 L 602,739 174,1481 1456,739 174,0 Z M 1358,739 L 309,1346 659,739 1358,739 Z"/>
  </g>
  <g id="bullet-char-template-10132" transform="scale(0.00048828125,-0.00048828125)">
   <path d="M 2015,739 L 1276,0 717,0 1260,543 174,543 174,936 1260,936 717,1481 1274,1481 2015,739 Z"/>
  </g>
  <g id="bullet-char-template-10007" transform="scale(0.00048828125,-0.00048828125)">
   <path d="M 0,-2 C -7,14 -16,27 -25,37 L 356,567 C 262,823 215,952 215,954 215,979 228,992 255,992 264,992 276,990 289,987 310,991 331,999 354,1012 L 381,999 492,748 772,1049 836,1024 860,1049 C 881,1039 901,1025 922,1006 886,937 835,863 770,784 769,783 710,716 594,584 L 774,223 C 774,196 753,168 711,139 L 727,119 C 717,90 699,76 672,76 641,76 570,178 457,381 L 164,-76 C 142,-110 111,-127 72,-127 30,-127 9,-110 8,-76 1,-67 -2,-52 -2,-32 -2,-23 -1,-13 0,-2 Z"/>
  </g>
  <g id="bullet-char-template-10004" transform="scale(0.00048828125,-0.00048828125)">
   <path d="M 285,-33 C 182,-33 111,30 74,156 52,228 41,333 41,471 41,549 55,616 82,672 116,743 169,778 240,778 293,778 328,747 346,684 L 369,508 C 377,444 397,411 428,410 L 1163,1116 C 1174,1127 1196,1133 1229,1133 1271,1133 1292,1118 1292,1087 L 1292,965 C 1292,929 1282,901 1262,881 L 442,47 C 390,-6 338,-33 285,-33 Z"/>
  </g>
  <g id="bullet-char-template-9679" transform="scale(0.00048828125,-0.00048828125)">
   <path d="M 813,0 C 632,0 489,54 383,161 276,268 223,411 223,592 223,773 276,916 383,1023 489,1130 632,1184 813,1184 992,1184 1136,1130 1245,1023 1353,916 1407,772 1407,592 1407,412 1353,268 1245,161 1136,54 992,0 813,0 Z"/>
  </g>
  <g id="bullet-char-template-8226" transform="scale(0.00048828125,-0.00048828125)">
   <path d="M 346,457 C 273,457 209,483 155,535 101,586 74,649 74,723 74,796 101,859 155,911 209,963 273,989 346,989 419,989 480,963 531,910 582,859 608,796 608,723 608,648 583,586 532,535 482,483 420,457 346,457 Z"/>
  </g>
  <g id="bullet-char-template-8211" transform="scale(0.00048828125,-0.00048828125)">
   <path d="M -4,459 L 1135,459 1135,606 -4,606 -4,459 Z"/>
  </g>
  <g id="bullet-char-template-61548" transform="scale(0.00048828125,-0.00048828125)">
   <path d="M 173,740 C 173,903 231,1043 346,1159 462,1274 601,1332 765,1332 928,1332 1067,1274 1183,1159 1299,1043 1357,903 1357,740 1357,577 1299,437 1183,322 1067,206 928,148 765,148 601,148 462,206 346,322 231,437 173,577 173,740 Z"/>
  </g>
 </defs>
 <g>
  <g id="id2" class="Master_Slide">
   <g id="bg-id2" class="Background"/>
   <g id="bo-id2" class="BackgroundObjects"/>
  </g>
 </g>
 <g class="SlideGroup">
  <g>
   <g id="container-id1">
    <g id="id1" class="Slide" clip-path="url(#presentation_clip_path)">
     <g class="Page">
      <g class="Group">
       <g class="com.sun.star.drawing.ClosedBezierShape">
        <g id="id3">
         <rect class="BoundingBox" stroke="none" fill="none" x="34" y="129" width="322" height="367"/>
         <path fill="rgb(0,0,0)" stroke="none" d="M 34,372 L 138,365 C 140,382 145,395 152,404 163,419 179,426 200,426 216,426 228,422 236,415 245,408 249,399 249,389 249,380 245,372 237,365 229,358 210,351 181,344 133,333 98,319 78,301 57,283 47,260 47,233 47,215 52,197 63,181 73,165 89,152 110,143 131,134 160,129 197,129 242,129 277,137 301,154 324,171 339,198 343,234 L 240,240 C 237,224 232,213 223,206 214,199 202,195 186,195 174,195 164,198 158,203 151,209 148,215 148,223 148,228 151,234 156,238 161,243 174,247 193,251 241,261 275,272 296,282 316,293 331,306 341,322 350,337 355,355 355,374 355,397 349,418 336,437 324,456 306,470 284,480 261,490 233,495 198,495 138,495 97,483 73,460 50,437 37,407 34,372 Z"/>
        </g>
       </g>
       <g class="com.sun.star.drawing.ClosedBezierShape">
        <g id="id4">
         <rect class="BoundingBox" stroke="none" fill="none" x="374" y="233" width="303" height="361"/>
         <path fill="rgb(0,0,0)" stroke="none" d="M 374,233 L 478,233 531,403 579,233 676,233 575,507 C 563,538 551,559 539,570 522,585 496,593 461,593 447,593 425,591 396,587 L 388,520 C 402,525 418,527 435,527 447,527 456,524 463,519 470,513 477,503 482,489 L 374,233 Z"/>
        </g>
       </g>
       <g class="com.sun.star.drawing.ClosedBezierShape">
        <g id="id5">
         <rect class="BoundingBox" stroke="none" fill="none" x="685" y="227" width="274" height="269"/>
         <path fill="rgb(0,0,0)" stroke="none" d="M 685,418 L 782,409 C 786,420 792,429 799,434 806,439 816,441 828,441 842,441 852,438 859,433 865,428 868,423 868,417 868,410 864,404 857,401 851,398 837,394 814,390 780,385 757,379 743,374 730,369 719,360 710,348 701,336 696,322 696,307 696,290 701,276 711,263 721,251 734,242 751,236 769,230 792,227 821,227 851,227 874,229 888,234 903,239 915,246 925,256 934,266 943,279 949,296 L 856,305 C 854,297 850,291 844,287 836,282 827,279 816,279 805,279 797,281 792,285 787,289 784,294 784,299 784,305 787,310 794,313 800,317 814,320 836,322 868,326 893,331 909,338 925,344 937,354 945,366 954,378 958,391 958,406 958,421 954,435 945,449 936,463 922,474 902,483 883,491 857,495 824,495 777,495 743,488 723,475 703,462 691,443 685,418 Z"/>
        </g>
       </g>
       <g class="com.sun.star.drawing.ClosedBezierShape">
        <g id="id6">
         <rect class="BoundingBox" stroke="none" fill="none" x="1004" y="226" width="272" height="264"/>
         <path fill="rgb(0,0,0)" stroke="none" d="M 1004,233 L 1095,233 1095,275 C 1109,258 1123,245 1137,238 1151,231 1168,227 1188,227 1215,227 1237,235 1252,251 1267,267 1275,292 1275,326 L 1275,489 1176,489 1176,348 C 1176,332 1173,321 1167,314 1161,307 1153,304 1142,304 1130,304 1120,309 1113,318 1106,327 1102,343 1102,366 L 1102,489 1004,489 1004,233 Z"/>
        </g>
       </g>
       <g class="com.sun.star.drawing.ClosedBezierShape">
        <g id="id7">
         <rect class="BoundingBox" stroke="none" fill="none" x="1321" y="227" width="299" height="269"/>
         <path fill="rgb(0,0,0)" stroke="none" d="M 1619,385 L 1421,385 C 1423,401 1427,413 1434,420 1443,431 1456,437 1471,437 1481,437 1490,435 1499,430 1504,427 1510,422 1516,414 L 1613,423 C 1598,449 1580,467 1559,478 1538,489 1508,495 1469,495 1435,495 1408,490 1389,481 1369,471 1353,456 1340,435 1327,414 1321,390 1321,361 1321,321 1334,289 1360,264 1385,239 1421,227 1466,227 1503,227 1532,233 1554,244 1575,255 1591,271 1602,292 1613,313 1619,340 1619,374 L 1619,385 Z M 1519,338 C 1517,319 1512,305 1504,297 1495,289 1484,285 1470,285 1455,285 1442,291 1433,304 1427,311 1423,323 1421,338 L 1519,338 Z"/>
        </g>
       </g>
       <g class="com.sun.star.drawing.ClosedBezierShape">
        <g id="id8">
         <rect class="BoundingBox" stroke="none" fill="none" x="1622" y="233" width="326" height="257"/>
         <path fill="rgb(0,0,0)" stroke="none" d="M 1628,233 C 1667,233 1706,233 1745,233 1758,257 1772,281 1785,304 1801,281 1817,257 1833,233 1869,233 1905,233 1941,233 1912,274 1883,314 1854,355 1885,400 1916,444 1947,489 1909,489 1870,489 1832,489 1816,462 1801,434 1785,407 1767,434 1748,462 1729,489 1694,489 1658,489 1623,489 1654,444 1685,400 1716,355 1687,314 1657,274 1628,233 Z"/>
        </g>
       </g>
       <g class="com.sun.star.drawing.ClosedBezierShape">
        <g id="id9">
         <rect class="BoundingBox" stroke="none" fill="none" x="1980" y="233" width="273" height="263"/>
         <path fill="rgb(0,0,0)" stroke="none" d="M 2252,489 L 2161,489 2161,447 C 2147,465 2133,477 2119,484 2105,491 2088,495 2068,495 2041,495 2019,487 2004,471 1989,455 1981,430 1981,396 L 1981,233 2080,233 2080,374 C 2080,390 2083,401 2089,408 2095,415 2103,418 2114,418 2126,418 2135,414 2143,405 2150,396 2154,379 2154,356 L 2154,233 2252,233 2252,489 Z"/>
        </g>
       </g>
       <g class="com.sun.star.drawing.ClosedBezierShape">
        <g id="id10">
         <rect class="BoundingBox" stroke="none" fill="none" x="2294" y="227" width="274" height="269"/>
         <path fill="rgb(0,0,0)" stroke="none" d="M 2294,418 L 2391,409 C 2395,420 2401,429 2408,434 2415,439 2425,441 2437,441 2451,441 2461,438 2468,433 2474,428 2477,423 2477,417 2477,410 2473,404 2466,401 2460,398 2446,394 2423,390 2389,385 2366,379 2352,374 2339,369 2328,360 2319,348 2310,336 2305,322 2305,307 2305,290 2310,276 2320,263 2330,251 2343,242 2360,236 2378,230 2401,227 2430,227 2460,227 2483,229 2497,234 2512,239 2524,246 2534,256 2543,266 2552,279 2558,296 L 2465,305 C 2463,297 2459,291 2453,287 2445,282 2436,279 2425,279 2414,279 2406,281 2401,285 2396,289 2393,294 2393,299 2393,305 2396,310 2403,313 2409,317 2423,320 2445,322 2477,326 2502,331 2518,338 2534,344 2546,354 2554,366 2563,378 2567,391 2567,406 2567,421 2563,435 2554,449 2545,463 2531,474 2511,483 2492,491 2466,495 2433,495 2386,495 2352,488 2332,475 2312,462 2300,443 2294,418 Z"/>
        </g>
       </g>
      </g>
     </g>
    </g>
   </g>
  </g>
 </g>
</svg>